<mxfile host="app.diagrams.net" modified="2023-08-03T01:55:50.013Z" agent="Mozilla/5.0 (Windows NT 10.0; Win64; x64) AppleWebKit/537.36 (KHTML, like Gecko) Chrome/115.0.0.0 Safari/537.36" etag="aXNYUzL87DUdEhs03POH" version="21.6.6" type="device">
  <diagram name="Page-1" id="JvsaflJrgkdJmpyMRwTx">
    <mxGraphModel dx="1600" dy="811" grid="1" gridSize="10" guides="1" tooltips="1" connect="1" arrows="1" fold="1" page="1" pageScale="1" pageWidth="850" pageHeight="1100" math="0" shadow="0">
      <root>
        <mxCell id="0" />
        <mxCell id="1" parent="0" />
        <mxCell id="pcTaptKJZ81m9SANACAH-19" value="" style="edgeStyle=orthogonalEdgeStyle;rounded=0;orthogonalLoop=1;jettySize=auto;html=1;fontSize=16;" edge="1" parent="1" source="pcTaptKJZ81m9SANACAH-20" target="pcTaptKJZ81m9SANACAH-22">
          <mxGeometry relative="1" as="geometry" />
        </mxCell>
        <mxCell id="pcTaptKJZ81m9SANACAH-20" value="Start" style="ellipse;whiteSpace=wrap;html=1;fontSize=16;" vertex="1" parent="1">
          <mxGeometry x="205" y="220" width="90" height="70" as="geometry" />
        </mxCell>
        <mxCell id="pcTaptKJZ81m9SANACAH-21" value="" style="edgeStyle=orthogonalEdgeStyle;rounded=0;orthogonalLoop=1;jettySize=auto;html=1;fontSize=16;" edge="1" parent="1" source="pcTaptKJZ81m9SANACAH-22" target="pcTaptKJZ81m9SANACAH-24">
          <mxGeometry relative="1" as="geometry" />
        </mxCell>
        <mxCell id="pcTaptKJZ81m9SANACAH-22" value="Logged In" style="rounded=1;whiteSpace=wrap;html=1;fontSize=16;" vertex="1" parent="1">
          <mxGeometry x="197.5" y="330" width="105" height="60" as="geometry" />
        </mxCell>
        <mxCell id="pcTaptKJZ81m9SANACAH-23" value="" style="edgeStyle=orthogonalEdgeStyle;rounded=0;orthogonalLoop=1;jettySize=auto;html=1;fontSize=16;" edge="1" parent="1" source="pcTaptKJZ81m9SANACAH-24" target="pcTaptKJZ81m9SANACAH-26">
          <mxGeometry relative="1" as="geometry" />
        </mxCell>
        <mxCell id="pcTaptKJZ81m9SANACAH-24" value="Read a Post" style="whiteSpace=wrap;html=1;rounded=1;fontSize=16;" vertex="1" parent="1">
          <mxGeometry x="198.75" y="420" width="102.5" height="60" as="geometry" />
        </mxCell>
        <mxCell id="pcTaptKJZ81m9SANACAH-25" value="" style="edgeStyle=orthogonalEdgeStyle;rounded=0;orthogonalLoop=1;jettySize=auto;html=1;fontSize=16;" edge="1" parent="1" source="pcTaptKJZ81m9SANACAH-26" target="pcTaptKJZ81m9SANACAH-27">
          <mxGeometry relative="1" as="geometry" />
        </mxCell>
        <mxCell id="pcTaptKJZ81m9SANACAH-38" style="edgeStyle=orthogonalEdgeStyle;rounded=0;orthogonalLoop=1;jettySize=auto;html=1;exitX=0;exitY=0.5;exitDx=0;exitDy=0;entryX=0;entryY=0.5;entryDx=0;entryDy=0;fontSize=16;" edge="1" parent="1" source="pcTaptKJZ81m9SANACAH-26" target="pcTaptKJZ81m9SANACAH-28">
          <mxGeometry relative="1" as="geometry">
            <Array as="points">
              <mxPoint x="150" y="590" />
              <mxPoint x="150" y="865" />
            </Array>
          </mxGeometry>
        </mxCell>
        <mxCell id="pcTaptKJZ81m9SANACAH-26" value="Positive Action(s)" style="rhombus;whiteSpace=wrap;html=1;fontSize=16;rounded=1;" vertex="1" parent="1">
          <mxGeometry x="206.25" y="540" width="87.5" height="100" as="geometry" />
        </mxCell>
        <mxCell id="pcTaptKJZ81m9SANACAH-29" value="" style="edgeStyle=orthogonalEdgeStyle;rounded=0;orthogonalLoop=1;jettySize=auto;html=1;fontSize=16;" edge="1" parent="1" source="pcTaptKJZ81m9SANACAH-27" target="pcTaptKJZ81m9SANACAH-28">
          <mxGeometry relative="1" as="geometry" />
        </mxCell>
        <mxCell id="pcTaptKJZ81m9SANACAH-27" value="Action(s) Taken" style="whiteSpace=wrap;html=1;fontSize=16;rounded=1;" vertex="1" parent="1">
          <mxGeometry x="190" y="680" width="120" height="60" as="geometry" />
        </mxCell>
        <mxCell id="pcTaptKJZ81m9SANACAH-31" value="" style="edgeStyle=orthogonalEdgeStyle;rounded=0;orthogonalLoop=1;jettySize=auto;html=1;fontSize=16;" edge="1" parent="1" source="pcTaptKJZ81m9SANACAH-28" target="pcTaptKJZ81m9SANACAH-30">
          <mxGeometry relative="1" as="geometry" />
        </mxCell>
        <mxCell id="pcTaptKJZ81m9SANACAH-39" style="edgeStyle=orthogonalEdgeStyle;rounded=0;orthogonalLoop=1;jettySize=auto;html=1;exitX=1;exitY=0.5;exitDx=0;exitDy=0;fontSize=16;" edge="1" parent="1" source="pcTaptKJZ81m9SANACAH-28" target="pcTaptKJZ81m9SANACAH-32">
          <mxGeometry relative="1" as="geometry" />
        </mxCell>
        <mxCell id="pcTaptKJZ81m9SANACAH-28" value="Fowarding" style="rhombus;whiteSpace=wrap;html=1;fontSize=16;rounded=1;" vertex="1" parent="1">
          <mxGeometry x="195" y="810" width="110" height="110" as="geometry" />
        </mxCell>
        <mxCell id="pcTaptKJZ81m9SANACAH-33" value="" style="edgeStyle=orthogonalEdgeStyle;rounded=0;orthogonalLoop=1;jettySize=auto;html=1;fontSize=16;" edge="1" parent="1" source="pcTaptKJZ81m9SANACAH-30" target="pcTaptKJZ81m9SANACAH-32">
          <mxGeometry relative="1" as="geometry" />
        </mxCell>
        <mxCell id="pcTaptKJZ81m9SANACAH-30" value="Action(s) Taken" style="whiteSpace=wrap;html=1;fontSize=16;rounded=1;" vertex="1" parent="1">
          <mxGeometry x="190" y="980" width="120" height="60" as="geometry" />
        </mxCell>
        <mxCell id="pcTaptKJZ81m9SANACAH-35" value="" style="edgeStyle=orthogonalEdgeStyle;rounded=0;orthogonalLoop=1;jettySize=auto;html=1;fontSize=16;" edge="1" parent="1" source="pcTaptKJZ81m9SANACAH-32" target="pcTaptKJZ81m9SANACAH-34">
          <mxGeometry relative="1" as="geometry" />
        </mxCell>
        <mxCell id="pcTaptKJZ81m9SANACAH-40" style="edgeStyle=orthogonalEdgeStyle;rounded=0;orthogonalLoop=1;jettySize=auto;html=1;exitX=0.5;exitY=1;exitDx=0;exitDy=0;entryX=0.5;entryY=1;entryDx=0;entryDy=0;fontSize=16;" edge="1" parent="1" source="pcTaptKJZ81m9SANACAH-32" target="pcTaptKJZ81m9SANACAH-36">
          <mxGeometry relative="1" as="geometry" />
        </mxCell>
        <mxCell id="pcTaptKJZ81m9SANACAH-32" value="Nagative Actions" style="rhombus;whiteSpace=wrap;html=1;fontSize=16;rounded=1;" vertex="1" parent="1">
          <mxGeometry x="370" y="950" width="110" height="120" as="geometry" />
        </mxCell>
        <mxCell id="pcTaptKJZ81m9SANACAH-37" value="" style="edgeStyle=orthogonalEdgeStyle;rounded=0;orthogonalLoop=1;jettySize=auto;html=1;fontSize=16;" edge="1" parent="1" source="pcTaptKJZ81m9SANACAH-34" target="pcTaptKJZ81m9SANACAH-36">
          <mxGeometry relative="1" as="geometry" />
        </mxCell>
        <mxCell id="pcTaptKJZ81m9SANACAH-34" value="Action(s) Taken" style="whiteSpace=wrap;html=1;fontSize=16;rounded=1;" vertex="1" parent="1">
          <mxGeometry x="540" y="980" width="120" height="60" as="geometry" />
        </mxCell>
        <mxCell id="pcTaptKJZ81m9SANACAH-36" value="End" style="ellipse;whiteSpace=wrap;html=1;fontSize=16;rounded=1;" vertex="1" parent="1">
          <mxGeometry x="710" y="980" width="80" height="60" as="geometry" />
        </mxCell>
        <mxCell id="pcTaptKJZ81m9SANACAH-41" value="1" style="text;html=1;align=center;verticalAlign=middle;resizable=0;points=[];autosize=1;strokeColor=none;fillColor=none;fontSize=16;" vertex="1" parent="1">
          <mxGeometry x="265" y="298" width="30" height="30" as="geometry" />
        </mxCell>
        <mxCell id="pcTaptKJZ81m9SANACAH-42" value="2" style="text;html=1;align=center;verticalAlign=middle;resizable=0;points=[];autosize=1;strokeColor=none;fillColor=none;fontSize=16;" vertex="1" parent="1">
          <mxGeometry x="265" y="388" width="30" height="30" as="geometry" />
        </mxCell>
        <mxCell id="pcTaptKJZ81m9SANACAH-43" value="3" style="text;html=1;align=center;verticalAlign=middle;resizable=0;points=[];autosize=1;strokeColor=none;fillColor=none;fontSize=16;" vertex="1" parent="1">
          <mxGeometry x="265" y="488" width="30" height="30" as="geometry" />
        </mxCell>
        <mxCell id="pcTaptKJZ81m9SANACAH-44" value="Yes" style="text;html=1;align=center;verticalAlign=middle;resizable=0;points=[];autosize=1;strokeColor=none;fillColor=none;fontSize=16;" vertex="1" parent="1">
          <mxGeometry x="255" y="638" width="50" height="30" as="geometry" />
        </mxCell>
        <mxCell id="pcTaptKJZ81m9SANACAH-45" value="4" style="text;html=1;align=center;verticalAlign=middle;resizable=0;points=[];autosize=1;strokeColor=none;fillColor=none;fontSize=16;" vertex="1" parent="1">
          <mxGeometry x="215" y="638" width="30" height="30" as="geometry" />
        </mxCell>
        <mxCell id="pcTaptKJZ81m9SANACAH-46" value="5" style="text;html=1;align=center;verticalAlign=middle;resizable=0;points=[];autosize=1;strokeColor=none;fillColor=none;fontSize=16;" vertex="1" parent="1">
          <mxGeometry x="265" y="758" width="30" height="30" as="geometry" />
        </mxCell>
        <mxCell id="pcTaptKJZ81m9SANACAH-47" value="No" style="text;html=1;align=center;verticalAlign=middle;resizable=0;points=[];autosize=1;strokeColor=none;fillColor=none;fontSize=16;" vertex="1" parent="1">
          <mxGeometry x="110" y="668" width="40" height="30" as="geometry" />
        </mxCell>
        <mxCell id="pcTaptKJZ81m9SANACAH-48" value="6" style="text;html=1;align=center;verticalAlign=middle;resizable=0;points=[];autosize=1;strokeColor=none;fillColor=none;fontSize=16;" vertex="1" parent="1">
          <mxGeometry x="115" y="728" width="30" height="30" as="geometry" />
        </mxCell>
        <mxCell id="pcTaptKJZ81m9SANACAH-49" value="8" style="text;html=1;align=center;verticalAlign=middle;resizable=0;points=[];autosize=1;strokeColor=none;fillColor=none;fontSize=16;" vertex="1" parent="1">
          <mxGeometry x="355" y="838" width="30" height="30" as="geometry" />
        </mxCell>
        <mxCell id="pcTaptKJZ81m9SANACAH-50" value="7" style="text;html=1;align=center;verticalAlign=middle;resizable=0;points=[];autosize=1;strokeColor=none;fillColor=none;fontSize=16;" vertex="1" parent="1">
          <mxGeometry x="208.75" y="928" width="30" height="30" as="geometry" />
        </mxCell>
        <mxCell id="pcTaptKJZ81m9SANACAH-51" value="Yes" style="text;html=1;align=center;verticalAlign=middle;resizable=0;points=[];autosize=1;strokeColor=none;fillColor=none;fontSize=16;" vertex="1" parent="1">
          <mxGeometry x="245" y="928" width="50" height="30" as="geometry" />
        </mxCell>
        <mxCell id="pcTaptKJZ81m9SANACAH-52" value="9" style="text;html=1;align=center;verticalAlign=middle;resizable=0;points=[];autosize=1;strokeColor=none;fillColor=none;fontSize=16;" vertex="1" parent="1">
          <mxGeometry x="335" y="968" width="30" height="30" as="geometry" />
        </mxCell>
        <mxCell id="pcTaptKJZ81m9SANACAH-53" value="10" style="text;html=1;align=center;verticalAlign=middle;resizable=0;points=[];autosize=1;strokeColor=none;fillColor=none;fontSize=16;" vertex="1" parent="1">
          <mxGeometry x="490" y="980" width="40" height="30" as="geometry" />
        </mxCell>
        <mxCell id="pcTaptKJZ81m9SANACAH-54" value="12" style="text;html=1;align=center;verticalAlign=middle;resizable=0;points=[];autosize=1;strokeColor=none;fillColor=none;fontSize=16;" vertex="1" parent="1">
          <mxGeometry x="665" y="980" width="40" height="30" as="geometry" />
        </mxCell>
        <mxCell id="pcTaptKJZ81m9SANACAH-55" value="No" style="text;html=1;align=center;verticalAlign=middle;resizable=0;points=[];autosize=1;strokeColor=none;fillColor=none;fontSize=16;" vertex="1" parent="1">
          <mxGeometry x="590" y="1058" width="40" height="30" as="geometry" />
        </mxCell>
        <mxCell id="pcTaptKJZ81m9SANACAH-56" value="11" style="text;html=1;align=center;verticalAlign=middle;resizable=0;points=[];autosize=1;strokeColor=none;fillColor=none;fontSize=16;" vertex="1" parent="1">
          <mxGeometry x="540" y="1058" width="40" height="30" as="geometry" />
        </mxCell>
        <mxCell id="pcTaptKJZ81m9SANACAH-57" value="No" style="text;html=1;align=center;verticalAlign=middle;resizable=0;points=[];autosize=1;strokeColor=none;fillColor=none;fontSize=16;" vertex="1" parent="1">
          <mxGeometry x="350" y="868" width="40" height="30" as="geometry" />
        </mxCell>
        <mxCell id="pcTaptKJZ81m9SANACAH-58" value="Yes" style="text;html=1;align=center;verticalAlign=middle;resizable=0;points=[];autosize=1;strokeColor=none;fillColor=none;fontSize=16;" vertex="1" parent="1">
          <mxGeometry x="485" y="1010" width="50" height="30" as="geometry" />
        </mxCell>
      </root>
    </mxGraphModel>
  </diagram>
</mxfile>
